<?xml version="1.0" encoding="UTF-8" standalone="no"?>
<!DOCTYPE svg PUBLIC "-//W3C//DTD SVG 1.1//EN" "http://www.w3.org/Graphics/SVG/1.1/DTD/svg11.dtd">
<svg width="100%" height="100%" viewBox="0 0 375 375" version="1.1" xmlns="http://www.w3.org/2000/svg" xmlns:xlink="http://www.w3.org/1999/xlink" xml:space="preserve" xmlns:serif="http://www.serif.com/" style="fill-rule:evenodd;clip-rule:evenodd;stroke-linejoin:round;stroke-miterlimit:1.5;">
    <g transform="matrix(0.75,0,0,0.75,0,0)">
        <g transform="matrix(0.707832,0,0,0.707832,-457.832,249.015)">
            <path d="M1000,-308.628C1171.1,-308.628 1310.02,-169.713 1310.02,1.391C1310.02,172.495 1171.1,311.41 1000,311.41C828.896,311.41 689.981,172.495 689.981,1.391C689.981,-169.713 828.896,-308.628 1000,-308.628ZM1000,-262.855C854.159,-262.855 735.754,-144.45 735.754,1.391C735.754,147.232 854.159,265.637 1000,265.637C1145.84,265.637 1264.25,147.232 1264.25,1.391C1264.25,-144.45 1145.84,-262.855 1000,-262.855Z" style="fill:white;"/>
        </g>
        <g transform="matrix(0.831296,4.03941e-17,-7.85852e-17,0.854601,9.27028,36.729)">
            <path d="M199.533,30.692L199.533,468.42" style="fill:none;stroke:white;stroke-width:42.7px;"/>
        </g>
        <g transform="matrix(0.831296,4.03941e-17,-7.85852e-17,0.854601,158.987,36.729)">
            <path d="M199.533,30.692L199.533,468.42" style="fill:none;stroke:white;stroke-width:42.7px;"/>
        </g>
    </g>
</svg>
