<?xml version="1.0" encoding="UTF-8" standalone="no"?>
<!DOCTYPE svg PUBLIC "-//W3C//DTD SVG 1.1//EN" "http://www.w3.org/Graphics/SVG/1.1/DTD/svg11.dtd">
<svg width="100%" height="100%" viewBox="0 0 1000 1000" version="1.1" xmlns="http://www.w3.org/2000/svg" xmlns:xlink="http://www.w3.org/1999/xlink" xml:space="preserve" xmlns:serif="http://www.serif.com/" style="fill-rule:evenodd;clip-rule:evenodd;stroke-miterlimit:1.5;">
    <path d="M750,1000L250,1000C250,990.882 249.511,981.877 248.557,973.011C236.085,857.036 144.165,764.704 28.381,751.596C19.516,750.593 10.511,750.054 1.391,750.004L1.391,249.996C10.511,249.946 19.516,249.407 28.381,248.404C143.702,235.349 235.349,143.702 248.404,28.381C249.407,19.516 249.946,10.511 249.996,1.391L750,1.391C750,10.509 750.489,19.514 751.443,28.381C763.965,144.82 856.572,237.426 973.011,249.948C981.877,250.902 990.882,251.391 1000,251.391L1000,750C990.882,750 981.877,750.489 973.011,751.443C856.572,763.965 763.965,856.572 751.443,973.011C750.489,981.877 750,990.882 750,1000ZM672.705,973L724.303,973C724.397,972.04 724.495,971.081 724.598,970.123C738.474,841.094 841.094,738.474 970.123,724.598C971.081,724.495 972.04,724.397 973,724.303L973,337.086L28.391,337.086L28.391,724.442C29.402,724.545 30.41,724.654 31.418,724.768C159.722,739.293 261.581,841.608 275.402,970.123C275.505,971.081 275.603,972.04 275.697,973L326.809,973L326.809,770.344L672.705,770.344L672.705,973ZM353.798,797.334L353.798,973.011L645.716,973.011L645.716,797.334L353.798,797.334ZM401.242,270.572L500.696,174.511L600.149,270.572L682.576,270.572L500.696,94.895L318.815,270.572L401.242,270.572Z" style="fill:white;"/>
    <g transform="matrix(1.34947,1.2326e-32,-1.2326e-32,1.34947,-203.43,-174.979)">
        <g transform="matrix(1,0,0,1,196.718,37.257)">
            <path d="M270.98,715.35L270.98,781.345" style="fill:none;stroke:white;stroke-width:20px;"/>
        </g>
        <g transform="matrix(6.12323e-17,-1,1,6.12323e-17,-280.649,1056.58)">
            <path d="M270.98,715.35L270.98,781.345" style="fill:none;stroke:white;stroke-width:20px;"/>
        </g>
    </g>
    <g transform="matrix(8.26313e-17,-1.34947,1.34947,8.26313e-17,-436.199,1250.85)">
        <path d="M270.98,715.35L270.98,781.345" style="fill:none;stroke:white;stroke-width:20px;"/>
    </g>
</svg>
