<?xml version="1.0" encoding="UTF-8" standalone="no"?>
<!DOCTYPE svg PUBLIC "-//W3C//DTD SVG 1.1//EN" "http://www.w3.org/Graphics/SVG/1.1/DTD/svg11.dtd">
<svg width="100%" height="100%" viewBox="0 0 100 100" version="1.1" xmlns="http://www.w3.org/2000/svg" xmlns:xlink="http://www.w3.org/1999/xlink" xml:space="preserve" xmlns:serif="http://www.serif.com/" style="fill-rule:evenodd;clip-rule:evenodd;stroke-linejoin:round;stroke-miterlimit:2;">
    <g id="_10t" serif:id="10t" transform="matrix(0.422348,0,0,0.422348,-122.791,-142.616)">
        <path d="M409.12,337.675C474.458,337.675 527.505,390.722 527.505,456.06C527.505,521.399 474.458,574.446 409.12,574.446C343.781,574.446 290.734,521.399 290.734,456.06C290.734,390.722 343.781,337.675 409.12,337.675ZM420.818,355.871C413.045,354.964 405.194,354.964 397.421,355.871L392.719,367.052C384.878,368.497 377.262,370.971 370.07,374.411L359.694,368.129C352.872,371.964 346.52,376.579 340.765,381.882L343.533,393.691C338.039,399.469 333.332,405.947 329.535,412.958L317.449,413.974C314.184,421.086 311.758,428.554 310.219,436.226L319.399,444.153C318.35,452.057 318.35,460.064 319.399,467.968L310.219,475.894C311.758,483.567 314.184,491.035 317.449,498.147L329.535,499.163C333.332,506.174 338.039,512.652 343.533,518.43L340.765,530.239C346.52,535.542 352.872,540.157 359.694,543.991L370.07,537.71C377.262,541.15 384.878,543.624 392.719,545.069L397.421,556.25C405.194,557.157 413.045,557.157 420.818,556.25L425.52,545.069C433.361,543.624 440.977,541.15 448.169,537.71L458.545,543.991C465.367,540.157 471.719,535.542 477.474,530.239L474.706,518.43C480.2,512.652 484.907,506.174 488.704,499.163L500.79,498.147C504.055,491.035 506.481,483.567 508.02,475.894L498.84,467.968C499.889,460.064 499.889,452.057 498.84,444.153L508.02,436.226C506.481,428.554 504.055,421.086 500.79,413.974L488.704,412.958C484.907,405.947 480.2,399.469 474.706,393.691L477.474,381.882C471.719,376.579 465.367,371.964 458.545,368.129L448.169,374.411C440.977,370.971 433.361,368.497 425.52,367.052L420.818,355.871Z" style="fill:white;"/>
    </g>
</svg>
