<?xml version="1.0" encoding="UTF-8" standalone="no"?>
<!DOCTYPE svg PUBLIC "-//W3C//DTD SVG 1.1//EN" "http://www.w3.org/Graphics/SVG/1.1/DTD/svg11.dtd">
<svg width="100%" height="100%" viewBox="0 0 100 100" version="1.1" xmlns="http://www.w3.org/2000/svg" xmlns:xlink="http://www.w3.org/1999/xlink" xml:space="preserve" xmlns:serif="http://www.serif.com/" style="fill-rule:evenodd;clip-rule:evenodd;stroke-linejoin:round;stroke-miterlimit:2;">
    <g id="_8t" serif:id="8t" transform="matrix(0.422348,0,0,0.422348,-122.791,-142.616)">
        <path d="M409.12,337.675C474.458,337.675 527.505,390.722 527.505,456.06C527.505,521.399 474.458,574.446 409.12,574.446C343.781,574.446 290.734,521.399 290.734,456.06C290.734,390.722 343.781,337.675 409.12,337.675ZM423.724,356.253C414.039,354.836 404.2,354.836 394.515,356.253L388.683,367.891C378.966,370.143 369.689,373.986 361.225,379.264L348.872,375.159C341.022,381.005 334.064,387.963 328.218,395.813L332.324,408.166C327.045,416.629 323.202,425.907 320.95,435.624L309.313,441.456C307.895,451.141 307.895,460.98 309.313,470.665L320.95,476.497C323.202,486.214 327.045,495.491 332.324,503.955L328.218,516.307C334.064,524.158 341.022,531.116 348.872,536.962L361.225,532.856C369.689,538.135 378.966,541.977 388.683,544.23L394.515,555.867C404.2,557.285 414.039,557.285 423.724,555.867L429.556,544.23C439.273,541.977 448.55,538.135 457.014,532.856L469.367,536.962C477.217,531.116 484.175,524.158 490.021,516.307L485.915,503.955C491.194,495.491 495.037,486.214 497.289,476.497L508.926,470.665C510.344,460.98 510.344,451.141 508.926,441.456L497.289,435.624C495.037,425.907 491.194,416.629 485.915,408.166L490.021,395.813C484.175,387.963 477.217,381.005 469.367,375.159L457.014,379.264C448.55,373.986 439.273,370.143 429.556,367.891L423.724,356.253Z" style="fill:white;"/>
    </g>
</svg>
